<?xml version="1.0" encoding="UTF-8"?>
<svg xmlns="http://www.w3.org/2000/svg" xmlns:xlink="http://www.w3.org/1999/xlink" viewBox="0 0 576.63 224.62"><defs><clipPath id="clippath"><path d="m245.48,58.55c.32-28.51,15.16-37.43,23.23-37.43,11.28,0,15.94,8.61,16.71,12.43.76,3.81,5.03,6.86,6.4.61,1.37-6.25,14.65-25.31,30.96-25.31,14.94,0,20.12,15.41,19.67,28.52-1.22,35.68-47.19,64.15-53.24,82.14-5.39-10.89-44.12-26.63-43.74-60.94Z" style="fill:none;"/></clipPath></defs><g style="isolation:isolate;"><g id="Layer_2"><g id="logo"><g><g style="clip-path:url(#clippath);"><g style="mix-blend-mode:multiply;"><polygon points="349.04 -13.71 285.82 6 240 4.44 234.43 66.3 245.02 126.18 346.81 121.4 349.04 -13.71" style="fill:#f8d507;"/><polygon points="295.53 53.95 361.02 46.78 358.15 -15.19 295.53 -3.22 295.53 53.95" style="fill:#1d72b3;"/><polygon points="240.19 79.6 240.19 117.07 276.07 123.4 276.07 75.54 240.19 79.6" style="fill:#1d72b3;"/><polygon points="295.53 121.35 361.02 103.78 361.02 66.31 295.53 73.49 295.53 121.35" style="fill:#1d72b3;"/><polygon points="276.07 -1.17 240.19 17.85 240.19 60.07 276.07 56.01 276.07 -1.17" style="fill:#1d72b3;"/></g></g><g><path d="m166.62,201.06h2.64l8.4,12.64,8.4-12.64h2.64v23.16h-2.6v-18.76l-8.4,12.41h-.13l-8.4-12.37v18.72h-2.54v-23.16Z"/><path d="m206.55,200.9h2.44l10.51,23.32h-2.8l-2.7-6.12h-12.55l-2.73,6.12h-2.67l10.51-23.32Zm6.42,14.85l-5.24-11.81-5.27,11.81h10.51Z"/><path d="m226.84,201.06h2.6v20.74h12.98v2.42h-15.58v-23.16Z"/><path d="m250.03,201.06h2.64l8.4,12.64,8.4-12.64h2.64v23.16h-2.6v-18.76l-8.4,12.41h-.13l-8.4-12.37v18.72h-2.54v-23.16Z"/><path d="m280.4,212.71v-.07c0-6.38,4.78-11.98,11.79-11.98s11.73,5.52,11.73,11.91v.07c0,6.38-4.78,11.98-11.79,11.98s-11.73-5.53-11.73-11.91Zm20.82,0v-.07c0-5.26-3.82-9.56-9.09-9.56s-9.03,4.23-9.03,9.49v.07c0,5.26,3.82,9.56,9.09,9.56s9.03-4.23,9.03-9.5Zm-13.67-17h3.06v2.98h-3.06v-2.98Zm6.16,0h3.06v2.98h-3.06v-2.98Z"/><path d="m323.22,222.2l8.37-7.41c3.52-3.18,4.81-4.96,4.81-7.28,0-2.71-2.14-4.43-4.65-4.43-2.63,0-4.35,1.39-6.19,3.97l-1.91-1.39c2.08-3.11,4.25-4.93,8.3-4.93s7.15,2.78,7.15,6.55v.07c0,3.37-1.78,5.46-5.83,9l-6.16,5.49h12.22v2.38h-16.11v-2.02Z"/><path d="m346.21,212.71v-.07c0-6.48,3.85-11.98,9.78-11.98s9.69,5.43,9.69,11.91v.07c0,6.48-3.82,11.98-9.75,11.98s-9.72-5.43-9.72-11.91Zm16.77,0v-.07c0-5.06-2.77-9.59-7.05-9.59s-7.02,4.43-7.02,9.53v.07c0,5.06,2.77,9.59,7.08,9.59s6.98-4.47,6.98-9.53Z"/><path d="m371.77,222.2l8.37-7.41c3.52-3.18,4.81-4.96,4.81-7.28,0-2.71-2.14-4.43-4.65-4.43-2.63,0-4.35,1.39-6.19,3.97l-1.91-1.39c2.08-3.11,4.25-4.93,8.3-4.93s7.15,2.78,7.15,6.55v.07c0,3.37-1.78,5.46-5.83,9l-6.16,5.49h12.22v2.38h-16.11v-2.02Z"/><path d="m406.1,218.73h-12.16l-.66-1.89,13.04-15.95h2.27v15.65h3.59v2.18h-3.59v5.49h-2.5v-5.49Zm0-2.18v-11.94l-9.69,11.94h9.69Z"/></g><path d="m498.95,53.69c3.32-3.86,5.59-6.12,5.08-8.79-.51-2.68-9.58-4.54-13.62-.81-11.94-9.48-9.5,1.62-7.77,4.1-14.11,9.92-23.65,36.03-15.97,56.41,7.51,19.92,30.15,22.38,42.02,8.38,10.51-12.4,8.64-35.18-9.74-59.28m-9.18,57.35c-7.71-.39-12.12-9.52-11.58-18.85.95-16.44,14.69-33.04,14.69-33.04,3.21,2.93,12.86,18.8,12.33,30.94-.51,11.86-7.73,21.34-15.44,20.95Z"/><g><path d="m100.4,177.29l3.89-4.66c2.69,2.22,5.51,3.63,8.93,3.63,2.69,0,4.32-1.07,4.32-2.82v-.09c0-1.67-1.03-2.52-6.03-3.8-6.03-1.54-9.92-3.21-9.92-9.15v-.08c0-5.43,4.36-9.02,10.47-9.02,4.36,0,8.08,1.37,11.11,3.8l-3.42,4.96c-2.65-1.84-5.26-2.95-7.78-2.95s-3.85,1.15-3.85,2.61v.09c0,1.97,1.28,2.61,6.45,3.93,6.07,1.58,9.49,3.76,9.49,8.98v.09c0,5.94-4.53,9.28-10.99,9.28-4.53,0-9.1-1.58-12.7-4.79Z"/><path d="m146.49,151.21c-9.23,0-15.94,6.97-15.94,15.48v.09c0,8.51,6.63,15.39,15.86,15.39s15.94-6.97,15.94-15.47v-.09c0-8.51-6.63-15.39-15.86-15.39Zm8.98,15.56c0,5.13-3.68,9.32-8.98,9.32s-9.06-4.27-9.06-9.41v-.09c0-5.13,3.68-9.32,8.98-9.32s9.06,4.28,9.06,9.41v.09Z"/><polygon points="169.92 151.72 175.99 151.72 190.01 170.15 190.01 151.72 196.51 151.72 196.51 181.65 190.91 181.65 176.42 162.62 176.42 181.65 169.92 181.65 169.92 151.72"/><path d="m204.89,166.77v-.09c0-8.51,6.63-15.48,15.69-15.48,5.39,0,8.64,1.45,11.76,4.1l-4.15,5c-2.31-1.92-4.36-3.04-7.82-3.04-4.79,0-8.59,4.23-8.59,9.32v.09c0,5.47,3.76,9.49,9.06,9.49,2.39,0,4.53-.6,6.2-1.8v-4.28h-6.62v-5.69h13v13c-3.08,2.61-7.31,4.74-12.78,4.74-9.32,0-15.73-6.54-15.73-15.39Z"/><path d="m256.37,166.77v-.09c0-8.51,6.41-15.48,15.6-15.48,5.64,0,9.02,1.88,11.8,4.62l-4.19,4.83c-2.31-2.1-4.66-3.38-7.65-3.38-5.04,0-8.68,4.19-8.68,9.32v.09c0,5.13,3.55,9.41,8.68,9.41,3.42,0,5.51-1.37,7.86-3.5l4.19,4.23c-3.08,3.29-6.5,5.34-12.27,5.34-8.81,0-15.35-6.8-15.35-15.39Z"/><path d="m305.58,151.21c-9.24,0-15.95,6.97-15.95,15.48v.09c0,8.51,6.63,15.39,15.86,15.39s15.94-6.97,15.94-15.47v-.09c0-8.51-6.62-15.39-15.86-15.39Zm8.98,15.56c0,5.13-3.68,9.32-8.98,9.32s-9.06-4.27-9.06-9.41v-.09c0-5.13,3.68-9.32,8.98-9.32s9.06,4.28,9.06,9.41v.09Z"/><polygon points="329.01 151.72 335.08 151.72 349.1 170.15 349.1 151.72 355.6 151.72 355.6 181.65 350 181.65 335.51 162.62 335.51 181.65 329.01 181.65 329.01 151.72"/><polygon points="371.68 157.79 362.57 157.79 362.57 151.72 387.37 151.72 387.37 157.79 378.26 157.79 378.26 181.65 371.68 181.65 371.68 157.79"/><polygon points="394.98 151.72 417.55 151.72 417.55 157.58 401.52 157.58 401.52 163.65 415.63 163.65 415.63 169.51 401.52 169.51 401.52 175.79 417.76 175.79 417.76 181.65 394.98 181.65 394.98 151.72"/><path d="m424.1,177.29l3.89-4.66c2.69,2.22,5.51,3.63,8.94,3.63,2.69,0,4.32-1.07,4.32-2.82v-.09c0-1.67-1.03-2.52-6.03-3.8-6.03-1.54-9.92-3.21-9.92-9.15v-.08c0-5.43,4.36-9.02,10.47-9.02,4.36,0,8.08,1.37,11.11,3.8l-3.42,4.96c-2.65-1.84-5.26-2.95-7.78-2.95s-3.85,1.15-3.85,2.61v.09c0,1.97,1.28,2.61,6.45,3.93,6.07,1.58,9.49,3.76,9.49,8.98v.09c0,5.94-4.53,9.28-10.99,9.28-4.53,0-9.1-1.58-12.7-4.79Z"/><polygon points="462.36 157.79 453.26 157.79 453.26 151.72 478.05 151.72 478.05 157.79 468.94 157.79 468.94 181.65 462.36 181.65 462.36 157.79"/></g><path d="m56.72,29.27c-34.76,3.81-46.35,24.09-47.42,26.84-.82,2.1-.61,2.59,1.68,2.59s33.86-3.5,43-3.05c9.3.46,8.69,10.67,1.37,12.81-29.88,8.39-47.27,29.73-47.27,40.71,0,8.38,6.1,12.35,13.11,12.35,20.89,0,42.02-21.71,45.96-26.48,2.48-3.01,4.02-1.12,4.03.22.04,17.64-18.92,38.46-44.35,38.46-18.14,0-26.84-13.88-26.84-25.46,0-21.96,23.79-40.71,23.79-40.71,0,0-12.06.46-16.17.46-3.33,0-5.64-2.51-5.75-5.25C.74,34.21,30.15,12.16,56.76,14.09c10.52.76,11.7,14.27-.04,15.18Z"/><path d="m87.42,95.95c.52,5.24,4.09,10.76,8.94,5.46,12.28-14.25,11.07-53.52,10.77-57.76-.3-4.25,1.97-5.46,3.64-3.19,1.67,2.27,9.55,14.86,9.55,34.11,0,23.35-13.93,47.27-24.85,47.27-24.86,0-22.61-56.97-15.18-75.77,3.86-9.76,14.1-5.53,14.1,1.37,0,10-8.49,33.2-6.97,48.51Z"/><path d="m213.6,51.41s3.95-5.36,1.57-8.38c-2.67-3.41-11.22-4.47-19.23,4.51-10.55,11.82-17.94,36.75-9.95,57.67,7.64,20,29.03,21.69,38.94,6.53,8.84-13.53,6.52-36.07-11.32-60.33Zm-5.58,57.21c-6.98,0-10.86-9.02-10.86-18.81,0-17.26,12.41-32.96,12.41-32.96,3.41,4.35,11.64,16.64,11.64,29.07s-6.21,22.7-13.19,22.7Z"/><path d="m149.7,79.9c14.49-.92,32.63-12.2,32.63-24.24,0-8.92-9.28-15.35-21.33-15.35s-25.33,4.07-30.36,7.11c-6.56,3.81-1.68,12.81,4.42,10.37,0,0-2.29,10.67-2.9,16.31-4.95-.61-5.95.3-5.64,1.37.31,1.07,2.44,1.98,4.88,5.03-.76,6.71-2.11,36.54-1.81,39.13.31,2.61,1.88,3.06,4.12.3,1.98-2.44,6.23-8.33,8.21-30.59,2.29,1.98,8.54,10.35,16.16,20.13,11.18,14.33,14.87,15.37,19.46,16.98,2.48.87,5.03-.55,3.21-3.08-7.44-10.32-16.78-30.98-31.06-43.49Zm-5.03-23.94s17.38-4.42,23.33-3.81c5.18.53,6.25,2.74,3.62,6.84-6.21,9.64-20.48,12.97-28.17,12.83.61-7.77,1.22-15.86,1.22-15.86Z"/><path d="m369.62,40.62c4.56,1.48,8.52,9.29,7.42,22.05-1.8,20.83-15.83,46.72-17.87,56.55-.68,3.29-3.24,3.13-4.41,1.32-1.12-1.73-3.47-7.03-2.83-20.14.87-17.98,14.5-42.62,14.09-58.12-.06-2.07,1.56-2.32,3.6-1.66Z"/><path d="m415.8,55.35c-16.01,0-20.99,4.93-20.99,8.69,0,10.06,17.38,9.35,25.41,10.27,4.65.53,10.67,3.56,10.67,11.59,0,8.87-11.11,16-22.9,22.49-12.39,6.82-25.16,13.5-30.99,17.52-3,2.07-4.94-.6-3.51-3.4,4.14-8.08,11.9-15.69,22.51-22.89,15.54-10.54,25.52-15.34,21.35-16.87-2.31-.84-8.64-1.32-15.15-2.54-11.18-1.83-18.19-8.34-18.19-17.79,0-15.35,13.75-22.11,32.81-22.11,10.06,0,11.3,15.04-1.05,15.04Z"/><path d="m445.96,40.37c5.07.43,13.72,7.22,12.76,24.74-.76,13.76-12.47,43.36-13.49,54.27-.2,2.22-2.4,3.45-4.08,1.4-3.28-4.01-4.67-8.37-4.67-20.75s10.62-44.95,4.38-56.92c-1.42-2.46,2.29-2.97,5.1-2.74Z"/><path d="m445.04,3.69c-1.06-4.18,3.43-4.65,6.61-2.06,2.04,1.67,12.21,11.73,12.21,23.89,0,13.95-19.03,12.11-18.71.7.11-3.99,2.33-13.75-.11-22.52Z"/><path d="m571.88,122.09c-12.17-10.5-11.02-40.57-11.63-52.47-.6-11.69-15.28-10.79-18.88-5.89-2.6,14.99-3.48,41.91-11.08,56.7-1.1,2-3.9,1.66-4.18-.62-.3-2.4-3.11-8.66-3.11-26.35s2.06-43.19,16.35-52.08c2.6-1.4,4.39-1.4,4.49.1.09,1.31-.38,5.46-.48,8.16,0,0,5.4-4.1,14.49-4.1,7,0,18.79,7.29,18.79,21.48,0,18.58-3.42,38.3-.93,53.63.36,2.2-2.18,2.85-3.82,1.43Z"/><path d="m328.12,0c-13.42,0-29.29,9.91-38.89,26.38-2.59-5.95-11.83-12.43-22.8-12.43-8.84,0-33.67,11.05-33.67,46.73,0,46.05,46.59,55.51,56.01,69.82.65.99,2.73,1.73,3.53-.62,7.51-22.18,65.79-47.24,65.79-92.37,0-25.31-16.53-37.51-29.95-37.51Zm-82.64,58.55c.32-28.51,15.16-37.43,23.23-37.43,11.28,0,15.94,8.61,16.71,12.43.76,3.81,5.03,6.86,6.4.61,1.37-6.25,14.65-25.31,30.96-25.31,14.94,0,20.12,15.41,19.67,28.52-1.22,35.68-47.19,64.15-53.24,82.14-5.39-10.89-44.12-26.63-43.74-60.94Z"/></g></g></g></g></svg>